<?xml version="1.0" encoding="UTF-8"?>
<svg version="1.1" xmlns="http://www.w3.org/2000/svg" width="248" height="232">
<path d="M0 0 C0.67524216 -0.00335861 1.35048431 -0.00671722 2.04618835 -0.01017761 C4.29114607 -0.01971399 6.53602911 -0.02163353 8.78100586 -0.02270508 C10.35167979 -0.02592105 11.92235342 -0.02928538 13.49302673 -0.03279114 C16.79939464 -0.03879274 20.1057364 -0.04063051 23.41210938 -0.04003906 C27.600757 -0.03993857 31.78923074 -0.05346688 35.97783756 -0.07081127 C39.23230212 -0.08207775 42.48672699 -0.08395368 45.74120903 -0.08342934 C47.28179957 -0.08459232 48.82239172 -0.08891674 50.36296272 -0.0967617 C58.47425992 -0.13412623 66.46389442 0.10451747 74.52880859 1.02294922 C75.20732156 1.09895513 75.88583452 1.17496103 76.58490849 1.25327015 C97.56481303 3.89622957 112.30715249 14.91206708 125.05834961 31.08276367 C129.65018931 37.00492678 134.08603026 43.04157748 138.43334961 49.14526367 C136.7672769 53.47916167 133.55806354 56.27821402 130.30834961 59.45776367 C129.76436523 60.00110352 129.22038086 60.54444336 128.65991211 61.10424805 C125.06526817 64.66109783 121.33010852 68.01261362 117.50805664 71.32226562 C113.90319264 74.48977792 110.42336633 77.78986826 106.93334961 81.08276367 C106.20631836 81.76661133 105.47928711 82.45045898 104.73022461 83.1550293 C102.96343247 84.81720875 101.19782913 86.48063007 99.43334961 88.14526367 C95.86080479 84.80422677 93.34652792 81.6614302 91.02319336 77.36401367 C90.42571289 76.27475586 89.82823242 75.18549805 89.21264648 74.06323242 C88.60485352 72.93530273 87.99706055 71.80737305 87.37084961 70.64526367 C86.15509029 68.40334711 84.93517648 66.16367743 83.71069336 63.92651367 C83.17694092 62.9371582 82.64318848 61.94780273 82.09326172 60.9284668 C78.2533765 54.49006535 74.16553706 50.52755532 67.05834961 47.89526367 C60.26751409 46.7940471 53.31289356 47.14526367 46.43334961 47.14526367 C46.10334961 81.79526367 45.77334961 116.44526367 45.43334961 152.14526367 C63.83780542 151.91433582 63.83780542 151.91433582 77.49584961 142.39526367 C78.27057617 141.59604492 79.04530273 140.79682617 79.84350586 139.97338867 C81.84870287 137.78370144 83.81077952 135.57352147 85.75756836 133.33276367 C89.4582902 129.08195478 93.30384346 124.98258364 97.18334961 120.89526367 C102.72678741 115.03105748 108.22112391 109.13013568 113.65991211 103.16870117 C116.89078583 99.6357443 120.16272705 96.14138565 123.43334961 92.64526367 C128.51744111 87.20988272 133.56138362 81.74113205 138.58178711 76.24682617 C142.42933694 72.04925048 146.32568651 67.89688512 150.22436523 63.74682617 C150.7702832 63.16416992 151.31620117 62.58151367 151.87866211 61.98120117 C152.41996262 61.41866638 152.96126312 60.85613159 153.51896667 60.27655029 C155.50113758 58.14602093 155.50113758 58.14602093 157.25691223 55.61749268 C160.27330845 51.6655116 162.65723261 48.64562946 167.55303955 47.26638794 C171.22009213 46.99067143 174.76293268 47.01890179 178.43725586 47.16870117 C179.75628403 47.18285065 181.07531219 47.19700012 182.43431091 47.21157837 C185.91321228 47.24946075 189.38782555 47.34739023 192.86505127 47.45861816 C196.42433663 47.56159082 199.98432691 47.60672826 203.54467773 47.65698242 C210.50931166 47.76369129 217.47112394 47.93396917 224.43334961 48.14526367 C222.80719221 51.53647849 220.90751629 54.18265817 218.49584961 57.08276367 C217.69405273 58.04956055 216.89225586 59.01635742 216.06616211 60.01245117 C212.87832002 63.81528013 209.66554248 67.59703202 206.45117188 71.37744141 C203.72424503 74.59246004 201.05219553 77.84091207 198.43334961 81.14526367 C194.90451558 85.59780068 191.25105632 89.93212346 187.57006836 94.25854492 C184.65330448 97.69097976 181.77641535 101.15119182 178.93334961 104.64526367 C175.18547163 109.24979948 171.36351517 113.78545559 167.51928711 118.30932617 C164.62090138 121.72585907 161.76179861 125.17031205 158.93334961 128.64526367 C155.18547163 133.24979948 151.36351517 137.78545559 147.51928711 142.30932617 C144.62090138 145.72585907 141.76179861 149.17031205 138.93334961 152.64526367 C134.68248041 157.86362461 130.3599435 163.01700945 125.99194336 168.13745117 C124.49110439 169.90179622 122.99960552 171.67430677 121.53100586 173.46557617 C108.54710765 189.04625403 90.36725412 197.18089997 70.43334961 199.14526367 C67.73975822 199.23259753 65.07322532 199.28245474 62.38085938 199.2746582 C61.62051895 199.27641052 60.86017853 199.27816284 60.07679749 199.27996826 C57.59275962 199.28432875 55.1087943 199.28147151 52.62475586 199.27807617 C50.88980597 199.27875039 49.15485618 199.2797214 47.41990662 199.28097534 C43.79978528 199.28244401 40.17968875 199.2803227 36.55957031 199.27563477 C31.90995875 199.26990801 27.26040454 199.27324023 22.61079502 199.27920723 C19.03616396 199.28280987 15.46154666 199.28167615 11.88691521 199.27907944 C10.17122325 199.27841088 8.45553006 199.2792361 6.73983955 199.28155899 C4.35321833 199.28408385 1.96669222 199.2802487 -0.41992188 199.2746582 C-1.13311584 199.27668243 -1.84630981 199.27870667 -2.58111572 199.28079224 C-7.45238129 199.25953277 -7.45238129 199.25953277 -8.56665039 198.14526367 C-8.66440513 195.60330179 -8.69660316 193.08853406 -8.68690491 190.54612732 C-8.68775933 189.74081308 -8.68861376 188.93549884 -8.68949407 188.10578114 C-8.69115134 185.38641664 -8.6856235 182.66711279 -8.68017578 179.94775391 C-8.67989394 178.0067444 -8.68005159 176.06573479 -8.68061829 174.12472534 C-8.68090637 168.83775383 -8.67500795 163.5508048 -8.66804433 158.26383853 C-8.66181253 152.74515314 -8.66120713 147.22646729 -8.66001892 141.70777893 C-8.65690509 131.24947209 -8.648691 120.79117565 -8.63866943 110.3328734 C-8.6275099 98.42981327 -8.62199825 86.52675264 -8.616974 74.62368858 C-8.60650843 50.1308745 -8.58890799 25.63806967 -8.56665039 1.14526367 C-5.69108414 -0.29251945 -3.21381316 0.01001377 0 0 Z " fill="#265981" transform="translate(17.566650390625,8.854736328125)"/>
<path d="M0 0 C4.22285511 1.40761837 5.14724709 4.39451315 7.125 8.125 C7.93307858 9.60516023 8.74301673 11.08430656 9.5546875 12.5625 C9.96428711 13.31144531 10.37388672 14.06039062 10.79589844 14.83203125 C12.54128178 17.9745706 14.38491391 21.05243955 16.25 24.125 C20.61150515 31.33308429 24.90021979 38.58283878 29.17358398 45.84350586 C31.69739675 50.12626046 34.23208297 54.39966322 36.83203125 58.63671875 C37.25484375 59.32830078 37.67765625 60.01988281 38.11328125 60.73242188 C38.89015031 61.99894619 39.67237906 63.26220483 40.4609375 64.52148438 C42.14107381 67.26528113 43 68.71389581 43 72 C35.1621336 74.61262213 25.98644305 74.0572102 17.79219341 74.32562351 C14.41062604 74.43920415 11.04473545 74.59709909 7.67163086 74.86547852 C-10.27139667 76.18833961 -10.27139667 76.18833961 -18 73 C-24.34662458 67.34850684 -27.73209897 59.64274759 -30.82797241 51.86935425 C-31.88708101 49.27644792 -33.09844427 46.91602703 -34.4621582 44.47485352 C-36 41 -36 41 -35.19317627 38.89881897 C-33.85157863 36.76380245 -32.36773092 35.06145525 -30.62109375 33.2421875 C-29.95150635 32.53908447 -29.28191895 31.83598145 -28.59204102 31.11157227 C-27.88104248 30.37350342 -27.17004395 29.63543457 -26.4375 28.875 C-24.97577864 27.34059009 -23.51483582 25.80543814 -22.0546875 24.26953125 C-21.35182617 23.5317041 -20.64896484 22.79387695 -19.92480469 22.03369141 C-16.19915868 18.09728461 -12.60147462 14.0499341 -9 10 C-7.31350368 8.12409717 -5.62601061 6.24908995 -3.9375 4.375 C-3.18339844 3.53710938 -2.42929688 2.69921875 -1.65234375 1.8359375 C-1.10707031 1.23007813 -0.56179687 0.62421875 0 0 Z " fill="#25577F" transform="translate(201,135)"/>
<path d="M0 0 C0.67524216 -0.00335861 1.35048431 -0.00671722 2.04618835 -0.01017761 C4.29114607 -0.01971399 6.53602911 -0.02163353 8.78100586 -0.02270508 C10.35167979 -0.02592105 11.92235342 -0.02928538 13.49302673 -0.03279114 C16.79939464 -0.03879274 20.1057364 -0.04063051 23.41210938 -0.04003906 C27.600757 -0.03993857 31.78923074 -0.05346688 35.97783756 -0.07081127 C39.23230212 -0.08207775 42.48672699 -0.08395368 45.74120903 -0.08342934 C47.28179957 -0.08459232 48.82239172 -0.08891674 50.36296272 -0.0967617 C58.49024118 -0.13419985 66.49476123 0.10773538 74.57568359 1.02685547 C75.60287931 1.14164985 75.60287931 1.14164985 76.65082645 1.25876331 C82.87476175 2.04184836 88.62104405 3.83825993 94.43334961 6.14526367 C94.43334961 6.47526367 94.43334961 6.80526367 94.43334961 7.14526367 C90.65377231 7.43600039 87.80938658 7.02144968 84.30834961 5.70776367 C59.98776039 -2.08729698 0.11787493 3.14526367 -6.56665039 3.14526367 C-6.56665039 67.16526367 -6.56665039 131.18526367 -6.56665039 197.14526367 C-5.24665039 196.81526367 -3.92665039 196.48526367 -2.56665039 196.14526367 C-0.30336651 196.06238031 1.96227068 196.03787726 4.22705078 196.04760742 C5.2403521 196.04979782 5.2403521 196.04979782 6.27412415 196.05203247 C7.73967915 196.05583242 9.20522959 196.06194262 10.67076683 196.07009888 C13.00710846 196.08293281 15.34339276 196.08939825 17.67976379 196.09423828 C23.49411959 196.10757398 29.30842224 196.1315262 35.1227417 196.15563965 C40.02152028 196.17560374 44.92027679 196.19115839 49.81908607 196.20120239 C52.09022123 196.20755772 54.36126376 196.22007334 56.63237 196.23291016 C66.600365 196.26730605 76.49000265 195.83726987 86.43334961 195.14526367 C77.28445365 201.24452764 62.80778553 199.42491133 52.13647461 199.37573242 C50.40867141 199.37453757 48.68086756 199.3740881 46.95306396 199.37434387 C43.36279129 199.3727922 39.77262021 199.36459645 36.18237305 199.35107422 C31.57213298 199.33393158 26.96200239 199.33026495 22.35173416 199.3310194 C18.79855295 199.33074843 15.24539583 199.32528159 11.6922226 199.31801796 C9.99048799 199.31483153 8.28875067 199.31286394 6.58701324 199.31212425 C4.22487139 199.30996911 1.86284885 199.30124758 -0.49926758 199.29052734 C-1.20460632 199.29098053 -1.90994507 199.29143372 -2.63665771 199.29190063 C-7.45215979 199.25975427 -7.45215979 199.25975427 -8.56665039 198.14526367 C-8.66440513 195.60330179 -8.69660316 193.08853406 -8.68690491 190.54612732 C-8.68775933 189.74081308 -8.68861376 188.93549884 -8.68949407 188.10578114 C-8.69115134 185.38641664 -8.6856235 182.66711279 -8.68017578 179.94775391 C-8.67989394 178.0067444 -8.68005159 176.06573479 -8.68061829 174.12472534 C-8.68090637 168.83775383 -8.67500795 163.5508048 -8.66804433 158.26383853 C-8.66181253 152.74515314 -8.66120713 147.22646729 -8.66001892 141.70777893 C-8.65690509 131.24947209 -8.648691 120.79117565 -8.63866943 110.3328734 C-8.6275099 98.42981327 -8.62199825 86.52675264 -8.616974 74.62368858 C-8.60650843 50.1308745 -8.58890799 25.63806967 -8.56665039 1.14526367 C-5.69108414 -0.29251945 -3.21381316 0.01001377 0 0 Z " fill="#2A5274" transform="translate(17.566650390625,8.854736328125)"/>
<path d="M0 0 C5.28 0 10.56 0 16 0 C16.33 0.66 16.66 1.32 17 2 C9.08 2.495 9.08 2.495 1 3 C0.67 37.65 0.34 72.3 0 108 C12.0723987 107.57621961 12.0723987 107.57621961 24 106 C22 109 22 109 19.4296875 109.68359375 C15.31073105 110.06358859 11.25822185 110.10803549 7.125 110.0625 C6.34125 110.05798828 5.5575 110.05347656 4.75 110.04882812 C2.83329986 110.03714093 0.91663952 110.01920908 -1 110 C-1 110.66 -1 111.32 -1 112 C-1.66 111.67 -2.32 111.34 -3 111 C-2.91565757 97.26557519 -2.82079776 83.5312673 -2.71247292 69.79700947 C-2.6625058 63.41978955 -2.61617561 57.04258624 -2.578125 50.6652832 C-2.54127772 44.51199603 -2.49491893 38.3588476 -2.44193649 32.20567894 C-2.42338965 29.85695006 -2.40828278 27.50819144 -2.39665604 25.15941811 C-2.37979885 21.87216581 -2.35076439 18.58523145 -2.31884766 15.2980957 C-2.31668747 14.3248938 -2.31452728 13.35169189 -2.31230164 12.34899902 C-2.30113815 11.45022537 -2.28997467 10.55145172 -2.2784729 9.6254425 C-2.27017676 8.45983528 -2.27017676 8.45983528 -2.26171303 7.27068043 C-2 5 -2 5 0 0 Z " fill="#194264" transform="translate(63,53)"/>
<path d="M0 0 C0.67524216 -0.00335861 1.35048431 -0.00671722 2.04618835 -0.01017761 C4.29114607 -0.01971399 6.53602911 -0.02163353 8.78100586 -0.02270508 C10.35167979 -0.02592105 11.92235342 -0.02928538 13.49302673 -0.03279114 C16.79939464 -0.03879274 20.1057364 -0.04063051 23.41210938 -0.04003906 C27.600757 -0.03993857 31.78923074 -0.05346688 35.97783756 -0.07081127 C39.23230212 -0.08207775 42.48672699 -0.08395368 45.74120903 -0.08342934 C47.28179957 -0.08459232 48.82239172 -0.08891674 50.36296272 -0.0967617 C58.49024118 -0.13419985 66.49476123 0.10773538 74.57568359 1.02685547 C75.60287931 1.14164985 75.60287931 1.14164985 76.65082645 1.25876331 C82.87476175 2.04184836 88.62104405 3.83825993 94.43334961 6.14526367 C94.43334961 6.47526367 94.43334961 6.80526367 94.43334961 7.14526367 C90.65377231 7.43600039 87.80938658 7.02144968 84.30834961 5.70776367 C73.52496119 1.88906816 61.17736353 2.9480849 49.85522461 2.82885742 C48.19085231 2.80823619 46.52648464 2.78723858 44.86212158 2.7658844 C40.52219434 2.71119653 36.18222412 2.66155673 31.84222412 2.61303711 C26.61315812 2.55349996 21.38416912 2.48757096 16.15516663 2.42273712 C8.24794208 2.32540006 0.34066374 2.23608571 -7.56665039 2.14526367 C-7.56665039 18.31526367 -7.56665039 34.48526367 -7.56665039 51.14526367 C-7.89665039 51.14526367 -8.22665039 51.14526367 -8.56665039 51.14526367 C-8.56665039 34.64526367 -8.56665039 18.14526367 -8.56665039 1.14526367 C-5.69108414 -0.29251945 -3.21381316 0.01001377 0 0 Z " fill="#142F45" transform="translate(17.566650390625,8.854736328125)"/>
<path d="M0 0 C1.33804925 0.0112 2.67612322 0.0197364 4.01420593 0.02572632 C7.52475719 0.04856306 11.03380307 0.10743624 14.54376221 0.1739502 C18.12987912 0.23548741 21.71624091 0.26276538 25.30273438 0.29296875 C32.33134498 0.35718863 39.35895947 0.45950234 46.38671875 0.5859375 C44.68748946 4.15303996 42.61007806 6.91790632 40.07421875 9.9609375 C39.275 10.92386719 38.47578125 11.88679688 37.65234375 12.87890625 C36.9046875 13.77222656 36.15703125 14.66554688 35.38671875 15.5859375 C34.8246875 16.26269531 34.26265625 16.93945312 33.68359375 17.63671875 C32.58795688 18.95589072 31.48801531 20.27148677 30.38671875 21.5859375 C29.89171875 20.1009375 29.89171875 20.1009375 29.38671875 18.5859375 C30.04671875 18.2559375 30.70671875 17.9259375 31.38671875 17.5859375 C31.88171875 16.1009375 31.88171875 16.1009375 32.38671875 14.5859375 C33.82421875 12.8984375 33.82421875 12.8984375 35.38671875 11.5859375 C36.04671875 11.5859375 36.70671875 11.5859375 37.38671875 11.5859375 C37.38671875 10.5959375 37.38671875 9.6059375 37.38671875 8.5859375 C38.72005208 7.5859375 40.05338542 6.5859375 41.38671875 5.5859375 C41.38671875 4.5959375 41.38671875 3.6059375 41.38671875 2.5859375 C34.09049895 2.60223064 26.79529309 2.65707559 19.49951172 2.73852539 C17.01845881 2.76169917 14.53730761 2.77609961 12.05615234 2.78149414 C8.48603099 2.79078761 4.91745434 2.83179113 1.34765625 2.87890625 C-0.31204697 2.87300728 -0.31204697 2.87300728 -2.00527954 2.86698914 C-8.62905956 2.93661228 -8.62905956 2.93661228 -14.29833984 6.00512695 C-16.60371782 8.34654479 -16.60371782 8.34654479 -17.61328125 10.5859375 C-18.35578125 11.0190625 -19.09828125 11.4521875 -19.86328125 11.8984375 C-22.74782913 13.52158851 -22.74782913 13.52158851 -25.17578125 16.1484375 C-27.36788206 18.34053831 -28.8672609 19.32613535 -31.61328125 20.5859375 C-28.05244576 16.33030485 -24.42165935 12.30334666 -20.421875 8.45703125 C-18.41758845 6.53713484 -18.41758845 6.53713484 -16.85107422 3.50561523 C-12.67688398 -1.47434491 -5.93551081 -0.14286203 0 0 Z " fill="#2A5172" transform="translate(195.61328125,56.4140625)"/>
<path d="M0 0 C3.34726719 1.11575573 3.62079748 1.51344622 5.25 4.4375 C5.8275 5.613125 6.405 6.78875 7 8 C6.67 8.66 6.34 9.32 6 10 C5.01 9.67 4.02 9.34 3 9 C3 8.01 3 7.02 3 6 C2.67 6.66 2.34 7.32 2 8 C0.35 7.67 -1.3 7.34 -3 7 C-3.66 8.32 -4.32 9.64 -5 11 C-6.32 10.67 -7.64 10.34 -9 10 C-6.03 6.7 -3.06 3.4 0 0 Z " fill="#1D486C" transform="translate(201,135)"/>
<path d="M0 0 C1.1015625 3.75 1.1015625 3.75 0.1875 6 C-0.204375 6.66 -0.59625 7.32 -1 8 C-1.37125 8.7425 -1.7425 9.485 -2.125 10.25 C-2.41375 10.8275 -2.7025 11.405 -3 12 C-3.56203125 11.74347656 -4.1240625 11.48695313 -4.703125 11.22265625 C-7.19818679 10.71259363 -7.19818679 10.71259363 -9.359375 12.87109375 C-10.54273438 14.14146484 -10.54273438 14.14146484 -11.75 15.4375 C-12.54921875 16.28183594 -13.3484375 17.12617188 -14.171875 17.99609375 C-14.77515625 18.65738281 -15.3784375 19.31867188 -16 20 C-16 17 -16 17 -14.27734375 15.01953125 C-13.50519531 14.29121094 -12.73304688 13.56289062 -11.9375 12.8125 C-7.70789691 8.73012992 -3.79870498 4.48271617 0 0 Z " fill="#17426A" transform="translate(191,146)"/>
<path d="M0 0 C0.66 0 1.32 0 2 0 C3.66473242 2.43056846 5.19287399 4.84314511 6.6875 7.375 C7.11611328 8.07367188 7.54472656 8.77234375 7.98632812 9.4921875 C9.05925001 11.28902931 10.03744173 13.14169878 11 15 C10.67 15.66 10.34 16.32 10 17 C9.34 15.68 8.68 14.36 8 13 C7.01 13 6.02 13 5 13 C4.67 13.99 4.34 14.98 4 16 C3.34 16 2.68 16 2 16 C2.50603992 13.83125748 2.99983813 12.00032373 4 10 C3.525625 9.649375 3.05125 9.29875 2.5625 8.9375 C0.32126175 6.15836457 0.32882342 3.4855283 0 0 Z " fill="#234D6F" transform="translate(216,160)"/>
<path d="M0 0 C0.66 0.33 1.32 0.66 2 1 C0.27367637 3.06493703 -1.45593765 5.12696303 -3.1875 7.1875 C-3.67025391 7.76564453 -4.15300781 8.34378906 -4.65039062 8.93945312 C-7.6208382 12.46810562 -10.69015402 15.78696853 -14 19 C-13.67 16.69 -13.34 14.38 -13 12 C-12.401875 11.938125 -11.80375 11.87625 -11.1875 11.8125 C-8.1267611 10.67565412 -7.56360154 8.7872897 -6 6 C-5.01 5.34 -4.02 4.68 -3 4 C-2.67 3.01 -2.34 2.02 -2 1 C-1.34 0.67 -0.68 0.34 0 0 Z " fill="#264A6B" transform="translate(185,124)"/>
<path d="M0 0 C0.99 0.33 1.98 0.66 3 1 C1.27705085 2.77726278 -0.45287096 4.54669663 -2.1875 6.3125 C-2.67025391 6.81201172 -3.15300781 7.31152344 -3.65039062 7.82617188 C-6.54882553 10.76351194 -9.36101656 13.05078218 -13 15 C-13.33 14.34 -13.66 13.68 -14 13 C-13.34 13 -12.68 13 -12 13 C-12.33 11.68 -12.66 10.36 -13 9 C-12.34 9 -11.68 9 -11 9 C-10.34 8.01 -9.68 7.02 -9 6 C-7.68 6 -6.36 6 -5 6 C-3.45039499 4.71881303 -3.45039499 4.71881303 -2.25 3 C-1.5075 2.01 -0.765 1.02 0 0 Z " fill="#1A466E" transform="translate(135,76)"/>
<path d="M0 0 C1.32 0 2.64 0 4 0 C2.41660944 3.60708223 0.20193384 6.35767939 -2.3125 9.375 C-3.11171875 10.33792969 -3.9109375 11.30085938 -4.734375 12.29296875 C-5.48203125 13.18628906 -6.2296875 14.07960938 -7 15 C-7.56203125 15.67675781 -8.1240625 16.35351562 -8.703125 17.05078125 C-9.79876187 18.36995322 -10.89870344 19.68554927 -12 21 C-12.33 20.01 -12.66 19.02 -13 18 C-12.34 17.67 -11.68 17.34 -11 17 C-10.67 16.01 -10.34 15.02 -10 14 C-8.5625 12.3125 -8.5625 12.3125 -7 11 C-6.34 11 -5.68 11 -5 11 C-5 10.01 -5 9.02 -5 8 C-4.360625 7.54625 -3.72125 7.0925 -3.0625 6.625 C-0.75235447 5.1337227 -0.75235447 5.1337227 -0.25 2.3125 C-0.1675 1.549375 -0.085 0.78625 0 0 Z " fill="#1F4566" transform="translate(238,57)"/>
<path d="M0 0 C5.97851812 -0.41954513 11.15697605 0.33722131 16.9375 1.875 C17.60015869 2.04870117 18.26281738 2.22240234 18.94555664 2.40136719 C21.93485593 3.2350885 23.77072536 3.77072536 26 6 C22.2204227 6.29073672 19.37603697 5.876186 15.875 4.5625 C10.35976546 2.56381671 4.82076074 2.28562109 -1 2 C-0.67 1.34 -0.34 0.68 0 0 Z " fill="#255072" transform="translate(86,10)"/>
<path d="M0 0 C1.32 1.32 2.64 2.64 4 4 C2.68692628 6.89852365 1.27315362 8.98277217 -0.96875 11.234375 C-1.82533203 12.09482422 -1.82533203 12.09482422 -2.69921875 12.97265625 C-3.59060547 13.85244141 -3.59060547 13.85244141 -4.5 14.75 C-5.39138672 15.65298828 -5.39138672 15.65298828 -6.30078125 16.57421875 C-6.87183594 17.14269531 -7.44289062 17.71117188 -8.03125 18.296875 C-8.55267578 18.81604492 -9.07410156 19.33521484 -9.61132812 19.87011719 C-11 21 -11 21 -13 21 C-13 20.01 -13 19.02 -13 18 C-11.35033353 16.97219733 -9.68034797 15.97683595 -8 15 C-6.5501672 13.48747172 -5.15303287 11.92269519 -3.8125 10.3125 C-2.58348258 8.83908906 -1.32127611 7.39127749 0 6 C0.66 6 1.32 6 2 6 C1.34 4.02 0.68 2.04 0 0 Z " fill="#12375B" transform="translate(152,54)"/>
<path d="M0 0 C4.28853112 0.57128243 7.13991377 2.09094395 10.75 4.4375 C11.71421875 5.05496094 12.6784375 5.67242188 13.671875 6.30859375 C16 8 16 8 17 10 C15.35 9.67 13.7 9.34 12 9 C12 8.34 12 7.68 12 7 C10.6696875 6.566875 10.6696875 6.566875 9.3125 6.125 C8.219375 5.75375 7.12625 5.3825 6 5 C4.6078125 4.5359375 4.6078125 4.5359375 3.1875 4.0625 C2.465625 3.711875 1.74375 3.36125 1 3 C0.67 2.01 0.34 1.02 0 0 Z " fill="#215170" transform="translate(112,16)"/>
<path d="M0 0 C0 4.59998114 -2.88841499 6.82497087 -5.8125 10.1875 C-6.63331055 11.16879883 -6.63331055 11.16879883 -7.47070312 12.16992188 C-8.00244141 12.78802734 -8.53417969 13.40613281 -9.08203125 14.04296875 C-9.56905518 14.61039795 -10.0560791 15.17782715 -10.55786133 15.76245117 C-12 17 -12 17 -15 17 C-14.54625 16.5875 -14.0925 16.175 -13.625 15.75 C-11.92272255 14.10310072 -11.92272255 14.10310072 -11.125 12.0625 C-9.62207048 9.30712922 -7.43479294 7.94783435 -5 6 C-4.30251417 4.68252676 -3.63040043 3.35085807 -3 2 C-2.01 1.34 -1.02 0.68 0 0 Z " fill="#1F4969" transform="translate(148,169)"/>
<path d="M0 0 C1.875 0.1875 1.875 0.1875 4 1 C5.78284814 4.29826907 6 6.1774751 6 10 C6.99 10.33 7.98 10.66 9 11 C9 12.65 9 14.3 9 16 C6.18368359 13.50506504 4.59044019 10.73437182 2.8125 7.4375 C2.28269531 6.46683594 1.75289062 5.49617187 1.20703125 4.49609375 C0 2 0 2 0 0 Z " fill="#19466C" transform="translate(166,176)"/>
<path d="M0 0 C2.96926381 3.55391974 5.42318536 7.18517995 7.75 11.1875 C8.67039063 12.75564453 8.67039063 12.75564453 9.609375 14.35546875 C11 17 11 17 11 19 C10.34 19 9.68 19 9 19 C8.68546875 18.43152344 8.3709375 17.86304688 8.046875 17.27734375 C7.40492188 16.11912109 7.40492188 16.11912109 6.75 14.9375 C6.29753906 14.11894531 5.84507812 13.30039063 5.37890625 12.45703125 C4.18175798 10.32386903 2.9418858 8.22463501 1.6875 6.125 C0 3 0 3 0 0 Z " fill="#1D415F" transform="translate(227,177)"/>
<path d="M0 0 C0.33 1.32 0.66 2.64 1 4 C0.278125 4.391875 -0.44375 4.78375 -1.1875 5.1875 C-4.11337124 6.93285781 -4.11337124 6.93285781 -6.5625 9.5625 C-8.75460081 11.75460081 -10.25397965 12.74019785 -13 14 C-8.88380164 9.08064098 -4.59589638 4.47352044 0 0 Z " fill="#144162" transform="translate(177,63)"/>
<path d="M0 0 C1.32 0.33 2.64 0.66 4 1 C1.73495035 2.19984797 -0.53589888 3.38494769 -2.8125 4.5625 C-3.45509766 4.90474609 -4.09769531 5.24699219 -4.75976562 5.59960938 C-6.46926395 6.4765023 -8.23321294 7.24515617 -10 8 C-10.99 7.67 -11.98 7.34 -13 7 C-12.01 6.67 -11.02 6.34 -10 6 C-10 5.34 -10 4.68 -10 4 C-6.7 3.34 -3.4 2.68 0 2 C0 1.34 0 0.68 0 0 Z " fill="#25486A" transform="translate(118,196)"/>
<path d="M0 0 C4.88049925 3.9419417 9.0580583 8.11950075 13 13 C12.67 13.66 12.34 14.32 12 15 C6.47330956 10.72937557 3.0887261 6.2993756 0 0 Z " fill="#1F4A69" transform="translate(129,26)"/>
<path d="M0 0 C0 3.77910478 -0.99703962 4.46106101 -3.5 7.1875 C-4.47453125 8.26064453 -4.47453125 8.26064453 -5.46875 9.35546875 C-5.9740625 9.89816406 -6.479375 10.44085938 -7 11 C-7 10.01 -7 9.02 -7 8 C-7.3062434 6.66018514 -7.63451555 5.32488113 -8 4 C-6.576875 3.566875 -6.576875 3.566875 -5.125 3.125 C-1.94788422 2.23174891 -1.94788422 2.23174891 0 0 Z " fill="#1C4968" transform="translate(203,103)"/>
<path d="M0 0 C0.99 0.33 1.98 0.66 3 1 C3 2.32 3 3.64 3 5 C3.99 5.33 4.98 5.66 6 6 C7.25 8.375 7.25 8.375 8 11 C7.67 11.99 7.34 12.98 7 14 C5.82807953 12.04480616 4.6626071 10.0857461 3.5 8.125 C2.8503125 7.03445312 2.200625 5.94390625 1.53125 4.8203125 C0 2 0 2 0 0 Z " fill="#194366" transform="translate(106,79)"/>
<path d="M0 0 C0 4.28535967 -2.2516278 5.84942699 -5 9 C-5.33 9.66 -5.66 10.32 -6 11 C-6.99 10.67 -7.98 10.34 -9 10 C-6.03 6.7 -3.06 3.4 0 0 Z " fill="#164A6B" transform="translate(108,137)"/>
<path d="M0 0 C1.32 1.32 2.64 2.64 4 4 C2.60667426 7.36720387 1.0210714 8.9859524 -2 11 C-1.6875 9.0625 -1.6875 9.0625 -1 7 C-0.01 6.67 0.98 6.34 2 6 C1.34 4.02 0.68 2.04 0 0 Z " fill="#194364" transform="translate(152,54)"/>
<path d="M0 0 C0.66 0.33 1.32 0.66 2 1 C-0.31 3.97 -2.62 6.94 -5 10 C-5.33 8.68 -5.66 7.36 -6 6 C-5.01 5.34 -4.02 4.68 -3 4 C-2.67 3.01 -2.34 2.02 -2 1 C-1.34 0.67 -0.68 0.34 0 0 Z " fill="#1F4464" transform="translate(185,124)"/>
<path d="M0 0 C4.455 2.97 4.455 2.97 9 6 C8.01 6.33 7.02 6.66 6 7 C5.34 6.67 4.68 6.34 4 6 C4 5.34 4 4.68 4 4 C2.68 3.34 1.36 2.68 0 2 C0 1.34 0 0.68 0 0 Z " fill="#214668" transform="translate(120,19)"/>
<path d="M0 0 C0.99 0.33 1.98 0.66 3 1 C1.47058649 4.05882701 -0.94219546 4.68951234 -4 6 C-4.66 5.67 -5.32 5.34 -6 5 C-1.60546875 0.99609375 -1.60546875 0.99609375 0 0 Z " fill="#205178" transform="translate(167,75)"/>
<path d="M0 0 C1.485 0.99 1.485 0.99 3 2 C3 2.66 3 3.32 3 4 C3.99 4.33 4.98 4.66 6 5 C6 6.65 6 8.3 6 10 C3.25722422 6.80009492 1.3697164 3.99500618 0 0 Z " fill="#18425F" transform="translate(97,64)"/>
<path d="M0 0 C0.99 0.33 1.98 0.66 3 1 C0.03 3.475 0.03 3.475 -3 6 C-3.66 4.68 -4.32 3.36 -5 2 C-4.01 2.33 -3.02 2.66 -2 3 C-1.34 2.01 -0.68 1.02 0 0 Z " fill="#1B4162" transform="translate(119,91)"/>
</svg>
